<?xml version="1.0" standalone="no"?>
<!DOCTYPE svg PUBLIC "-//W3C//DTD SVG 20010904//EN"
 "http://www.w3.org/TR/2001/REC-SVG-20010904/DTD/svg10.dtd">
<svg version="1.0" xmlns="http://www.w3.org/2000/svg"
 width="433.000000pt" height="471.000000pt" viewBox="0 0 433.000000 471.000000"
 preserveAspectRatio="xMidYMid meet">

<g transform="translate(0.000000,471.000000) scale(0.100000,-0.100000)"
fill="#000000" stroke="none">
<path d="M0 2355 l0 -2355 2165 0 2165 0 0 2355 0 2355 -2165 0 -2165 0 0
-2355z m2420 1225 c146 -23 251 -71 320 -146 54 -59 78 -114 92 -214 11 -69
10 -85 -3 -108 -14 -26 -17 -27 -139 -33 -76 -3 -139 -1 -160 5 -35 11 -35 11
-41 82 -12 163 -88 205 -345 191 -126 -6 -175 -28 -211 -96 l-23 -44 0 -489
c0 -526 -1 -518 51 -462 45 50 101 84 136 84 27 0 42 -9 79 -47 78 -82 87 -65
-172 -324 -149 -149 -236 -229 -249 -229 -29 0 -475 448 -475 477 0 25 113
133 139 133 23 0 102 -60 125 -95 12 -18 24 -25 39 -23 l22 3 5 520 c5 474 7
524 24 569 46 123 121 192 246 226 99 27 421 38 540 20z m473 -837 c112 -115
216 -216 230 -225 19 -13 24 -23 19 -40 -6 -25 -127 -148 -145 -148 -6 0 -41
29 -77 65 -107 106 -100 133 -100 -421 0 -394 -3 -488 -16 -551 -41 -200 -137
-276 -384 -304 -131 -15 -388 -7 -490 15 -151 33 -253 104 -306 212 -31 64
-52 215 -35 257 l11 27 154 0 c111 0 156 -3 163 -12 5 -7 15 -48 21 -91 24
-159 44 -172 272 -172 157 0 167 1 210 25 33 18 52 38 70 75 l25 50 3 473 c4
553 9 528 -94 419 -35 -37 -68 -67 -74 -67 -38 0 -160 117 -160 153 0 21 457
467 479 467 11 0 104 -87 224 -207z"/>
</g>
</svg>
